<svg width="1586" height="611" viewBox="0 0 1586 611" fill="none" xmlns="http://www.w3.org/2000/svg">
<path d="M1584.5 2.5L1479 89.5L1333 46.5L1214 167L1015 207.5L907.5 324L766.5 354.5L597 476L445 425.5L198 503L0.5 530.5" stroke="#356CFB" stroke-width="4"/>
<path d="M445 425.5L198 503L0.5 530.5V610.5H1584.5V2.5L1479 89.5L1333 46.5L1214 167L1015 207.5L907.5 324L766.5 354.5L597 476L445 425.5Z" fill="url(#paint0_linear_0_1)"/>
<path d="M908 323V462" stroke="url(#paint1_linear_0_1)" stroke-width="4" stroke-dasharray="4 4"/>
<path d="M1334 47V186" stroke="url(#paint2_linear_0_1)" stroke-width="4" stroke-dasharray="4 4"/>
<g filter="url(#filter0_d_0_1)">
<path fill-rule="evenodd" clip-rule="evenodd" d="M894.302 479.506L903.924 469.66C905.886 467.653 909.114 467.653 911.076 469.66L920.698 479.506C920.854 479.665 920.996 479.83 921.126 480H1074C1082.28 480 1089 486.715 1089 495V545C1089 553.284 1082.28 560 1074 560H729C720.716 560 714 553.284 714 545V495C714 486.715 720.716 480 729 480H893.874C894.004 479.83 894.146 479.665 894.302 479.506Z" fill="#313131"/>
</g>
<path d="M740.504 507V495.8H745.752C747.096 495.8 748.12 496.067 748.824 496.6C749.528 497.123 749.88 497.827 749.88 498.712C749.88 499.309 749.741 499.821 749.464 500.248C749.187 500.664 748.813 500.989 748.344 501.224C747.885 501.448 747.384 501.56 746.84 501.56L747.128 500.984C747.757 500.984 748.323 501.101 748.824 501.336C749.325 501.56 749.72 501.891 750.008 502.328C750.307 502.765 750.456 503.309 750.456 503.96C750.456 504.92 750.088 505.667 749.352 506.2C748.616 506.733 747.523 507 746.072 507H740.504ZM742.584 505.368H745.944C746.723 505.368 747.32 505.24 747.736 504.984C748.152 504.728 748.36 504.317 748.36 503.752C748.36 503.197 748.152 502.792 747.736 502.536C747.32 502.269 746.723 502.136 745.944 502.136H742.424V500.52H745.528C746.253 500.52 746.808 500.392 747.192 500.136C747.587 499.88 747.784 499.496 747.784 498.984C747.784 498.461 747.587 498.072 747.192 497.816C746.808 497.56 746.253 497.432 745.528 497.432H742.584V505.368ZM756.5 507.112C755.551 507.112 754.719 506.925 754.004 506.552C753.3 506.168 752.751 505.645 752.356 504.984C751.972 504.323 751.78 503.571 751.78 502.728C751.78 501.875 751.967 501.123 752.34 500.472C752.724 499.811 753.247 499.293 753.908 498.92C754.58 498.547 755.343 498.36 756.196 498.36C757.028 498.36 757.769 498.541 758.42 498.904C759.071 499.267 759.583 499.779 759.956 500.44C760.329 501.101 760.516 501.88 760.516 502.776C760.516 502.861 760.511 502.957 760.5 503.064C760.5 503.171 760.495 503.272 760.484 503.368H753.364V502.04H759.428L758.644 502.456C758.655 501.965 758.553 501.533 758.34 501.16C758.127 500.787 757.833 500.493 757.46 500.28C757.097 500.067 756.676 499.96 756.196 499.96C755.705 499.96 755.273 500.067 754.9 500.28C754.537 500.493 754.249 500.792 754.036 501.176C753.833 501.549 753.732 501.992 753.732 502.504V502.824C753.732 503.336 753.849 503.789 754.084 504.184C754.319 504.579 754.649 504.883 755.076 505.096C755.503 505.309 755.993 505.416 756.548 505.416C757.028 505.416 757.46 505.341 757.844 505.192C758.228 505.043 758.569 504.808 758.868 504.488L759.94 505.72C759.556 506.168 759.071 506.515 758.484 506.76C757.908 506.995 757.247 507.112 756.5 507.112ZM762.709 507V497.976C762.709 497.08 762.97 496.365 763.493 495.832C764.026 495.288 764.784 495.016 765.765 495.016C766.117 495.016 766.448 495.053 766.757 495.128C767.077 495.203 767.344 495.32 767.557 495.48L767.013 496.984C766.864 496.867 766.693 496.781 766.501 496.728C766.309 496.664 766.112 496.632 765.909 496.632C765.493 496.632 765.178 496.749 764.965 496.984C764.752 497.208 764.645 497.549 764.645 498.008V498.968L764.709 499.864V507H762.709ZM761.301 500.12V498.52H766.997V500.12H761.301ZM772.058 507.112C771.184 507.112 770.405 506.925 769.722 506.552C769.04 506.168 768.501 505.645 768.106 504.984C767.712 504.323 767.514 503.571 767.514 502.728C767.514 501.875 767.712 501.123 768.106 500.472C768.501 499.811 769.04 499.293 769.722 498.92C770.405 498.547 771.184 498.36 772.058 498.36C772.944 498.36 773.728 498.547 774.41 498.92C775.104 499.293 775.642 499.805 776.026 500.456C776.421 501.107 776.618 501.864 776.618 502.728C776.618 503.571 776.421 504.323 776.026 504.984C775.642 505.645 775.104 506.168 774.41 506.552C773.728 506.925 772.944 507.112 772.058 507.112ZM772.058 505.4C772.549 505.4 772.986 505.293 773.37 505.08C773.754 504.867 774.053 504.557 774.266 504.152C774.49 503.747 774.602 503.272 774.602 502.728C774.602 502.173 774.49 501.699 774.266 501.304C774.053 500.899 773.754 500.589 773.37 500.376C772.986 500.163 772.554 500.056 772.074 500.056C771.584 500.056 771.146 500.163 770.762 500.376C770.389 500.589 770.09 500.899 769.866 501.304C769.642 501.699 769.53 502.173 769.53 502.728C769.53 503.272 769.642 503.747 769.866 504.152C770.09 504.557 770.389 504.867 770.762 505.08C771.146 505.293 771.578 505.4 772.058 505.4ZM778.531 507V498.456H780.435V500.808L780.211 500.12C780.467 499.544 780.867 499.107 781.411 498.808C781.965 498.509 782.653 498.36 783.475 498.36V500.264C783.389 500.243 783.309 500.232 783.235 500.232C783.16 500.221 783.085 500.216 783.011 500.216C782.253 500.216 781.651 500.44 781.203 500.888C780.755 501.325 780.531 501.981 780.531 502.856V507H778.531ZM789.109 507.112C788.16 507.112 787.328 506.925 786.613 506.552C785.909 506.168 785.36 505.645 784.965 504.984C784.581 504.323 784.389 503.571 784.389 502.728C784.389 501.875 784.576 501.123 784.949 500.472C785.333 499.811 785.856 499.293 786.517 498.92C787.189 498.547 787.952 498.36 788.805 498.36C789.637 498.36 790.379 498.541 791.029 498.904C791.68 499.267 792.192 499.779 792.565 500.44C792.939 501.101 793.125 501.88 793.125 502.776C793.125 502.861 793.12 502.957 793.109 503.064C793.109 503.171 793.104 503.272 793.093 503.368H785.973V502.04H792.037L791.253 502.456C791.264 501.965 791.163 501.533 790.949 501.16C790.736 500.787 790.443 500.493 790.069 500.28C789.707 500.067 789.285 499.96 788.805 499.96C788.315 499.96 787.883 500.067 787.509 500.28C787.147 500.493 786.859 500.792 786.645 501.176C786.443 501.549 786.341 501.992 786.341 502.504V502.824C786.341 503.336 786.459 503.789 786.693 504.184C786.928 504.579 787.259 504.883 787.685 505.096C788.112 505.309 788.603 505.416 789.157 505.416C789.637 505.416 790.069 505.341 790.453 505.192C790.837 505.043 791.179 504.808 791.477 504.488L792.549 505.72C792.165 506.168 791.68 506.515 791.093 506.76C790.517 506.995 789.856 507.112 789.109 507.112ZM804.476 507.16C802.94 507.16 801.735 506.728 800.86 505.864C799.996 505 799.564 503.752 799.564 502.12V495.8H801.644V502.04C801.644 503.192 801.89 504.029 802.38 504.552C802.882 505.075 803.586 505.336 804.492 505.336C805.399 505.336 806.098 505.075 806.588 504.552C807.079 504.029 807.324 503.192 807.324 502.04V495.8H809.372V502.12C809.372 503.752 808.935 505 808.06 505.864C807.196 506.728 806.002 507.16 804.476 507.16ZM814.733 507.112C814.019 507.112 813.331 507.021 812.669 506.84C812.019 506.648 811.501 506.419 811.117 506.152L811.885 504.632C812.269 504.877 812.728 505.08 813.261 505.24C813.795 505.4 814.328 505.48 814.861 505.48C815.491 505.48 815.944 505.395 816.221 505.224C816.509 505.053 816.653 504.824 816.653 504.536C816.653 504.301 816.557 504.125 816.365 504.008C816.173 503.88 815.923 503.784 815.613 503.72C815.304 503.656 814.957 503.597 814.573 503.544C814.2 503.491 813.821 503.421 813.437 503.336C813.064 503.24 812.723 503.107 812.413 502.936C812.104 502.755 811.853 502.515 811.661 502.216C811.469 501.917 811.373 501.523 811.373 501.032C811.373 500.488 811.528 500.019 811.837 499.624C812.147 499.219 812.579 498.909 813.133 498.696C813.699 498.472 814.365 498.36 815.133 498.36C815.709 498.36 816.291 498.424 816.877 498.552C817.464 498.68 817.949 498.861 818.333 499.096L817.565 500.616C817.16 500.371 816.749 500.205 816.333 500.12C815.928 500.024 815.523 499.976 815.117 499.976C814.509 499.976 814.056 500.067 813.757 500.248C813.469 500.429 813.325 500.659 813.325 500.936C813.325 501.192 813.421 501.384 813.613 501.512C813.805 501.64 814.056 501.741 814.365 501.816C814.675 501.891 815.016 501.955 815.389 502.008C815.773 502.051 816.152 502.12 816.525 502.216C816.899 502.312 817.24 502.445 817.549 502.616C817.869 502.776 818.125 503.005 818.317 503.304C818.509 503.603 818.605 503.992 818.605 504.472C818.605 505.005 818.445 505.469 818.125 505.864C817.816 506.259 817.373 506.568 816.797 506.792C816.221 507.005 815.533 507.112 814.733 507.112ZM824.344 507.112C823.394 507.112 822.562 506.925 821.848 506.552C821.144 506.168 820.594 505.645 820.2 504.984C819.816 504.323 819.624 503.571 819.624 502.728C819.624 501.875 819.81 501.123 820.184 500.472C820.568 499.811 821.09 499.293 821.752 498.92C822.424 498.547 823.186 498.36 824.04 498.36C824.872 498.36 825.613 498.541 826.264 498.904C826.914 499.267 827.426 499.779 827.8 500.44C828.173 501.101 828.36 501.88 828.36 502.776C828.36 502.861 828.354 502.957 828.344 503.064C828.344 503.171 828.338 503.272 828.328 503.368H821.208V502.04H827.272L826.488 502.456C826.498 501.965 826.397 501.533 826.184 501.16C825.97 500.787 825.677 500.493 825.304 500.28C824.941 500.067 824.52 499.96 824.04 499.96C823.549 499.96 823.117 500.067 822.744 500.28C822.381 500.493 822.093 500.792 821.88 501.176C821.677 501.549 821.576 501.992 821.576 502.504V502.824C821.576 503.336 821.693 503.789 821.928 504.184C822.162 504.579 822.493 504.883 822.92 505.096C823.346 505.309 823.837 505.416 824.392 505.416C824.872 505.416 825.304 505.341 825.688 505.192C826.072 505.043 826.413 504.808 826.712 504.488L827.784 505.72C827.4 506.168 826.914 506.515 826.328 506.76C825.752 506.995 825.09 507.112 824.344 507.112ZM838.367 507.16C837.492 507.16 836.655 507.037 835.855 506.792C835.055 506.536 834.42 506.211 833.951 505.816L834.671 504.2C835.119 504.552 835.673 504.845 836.335 505.08C836.996 505.315 837.673 505.432 838.367 505.432C838.953 505.432 839.428 505.368 839.791 505.24C840.153 505.112 840.42 504.941 840.591 504.728C840.761 504.504 840.847 504.253 840.847 503.976C840.847 503.635 840.724 503.363 840.479 503.16C840.233 502.947 839.913 502.781 839.519 502.664C839.135 502.536 838.703 502.419 838.223 502.312C837.753 502.205 837.279 502.083 836.799 501.944C836.329 501.795 835.897 501.608 835.503 501.384C835.119 501.149 834.804 500.84 834.559 500.456C834.313 500.072 834.191 499.581 834.191 498.984C834.191 498.376 834.351 497.821 834.671 497.32C835.001 496.808 835.497 496.403 836.159 496.104C836.831 495.795 837.679 495.64 838.703 495.64C839.375 495.64 840.041 495.725 840.703 495.896C841.364 496.067 841.94 496.312 842.431 496.632L841.775 498.248C841.273 497.949 840.756 497.731 840.223 497.592C839.689 497.443 839.177 497.368 838.687 497.368C838.111 497.368 837.641 497.437 837.279 497.576C836.927 497.715 836.665 497.896 836.495 498.12C836.335 498.344 836.255 498.6 836.255 498.888C836.255 499.229 836.372 499.507 836.607 499.72C836.852 499.923 837.167 500.083 837.551 500.2C837.945 500.317 838.383 500.435 838.863 500.552C839.343 500.659 839.817 500.781 840.287 500.92C840.767 501.059 841.199 501.24 841.583 501.464C841.977 501.688 842.292 501.992 842.527 502.376C842.772 502.76 842.895 503.245 842.895 503.832C842.895 504.429 842.729 504.984 842.399 505.496C842.079 505.997 841.583 506.403 840.911 506.712C840.239 507.011 839.391 507.16 838.367 507.16ZM847.981 507.112C847.042 507.112 846.317 506.872 845.805 506.392C845.293 505.901 845.037 505.181 845.037 504.232V496.568H847.037V504.184C847.037 504.589 847.138 504.904 847.341 505.128C847.554 505.352 847.848 505.464 848.221 505.464C848.669 505.464 849.042 505.347 849.341 505.112L849.901 506.536C849.666 506.728 849.378 506.872 849.037 506.968C848.696 507.064 848.344 507.112 847.981 507.112ZM843.629 500.12V498.52H849.325V500.12H843.629ZM856.81 507V505.272L856.698 504.904V501.88C856.698 501.293 856.522 500.84 856.17 500.52C855.818 500.189 855.285 500.024 854.57 500.024C854.09 500.024 853.616 500.099 853.146 500.248C852.688 500.397 852.298 500.605 851.978 500.872L851.194 499.416C851.653 499.064 852.197 498.803 852.826 498.632C853.466 498.451 854.128 498.36 854.81 498.36C856.048 498.36 857.002 498.659 857.674 499.256C858.357 499.843 858.698 500.755 858.698 501.992V507H856.81ZM854.122 507.112C853.482 507.112 852.922 507.005 852.442 506.792C851.962 506.568 851.589 506.264 851.322 505.88C851.066 505.485 850.938 505.043 850.938 504.552C850.938 504.072 851.05 503.64 851.274 503.256C851.509 502.872 851.888 502.568 852.41 502.344C852.933 502.12 853.626 502.008 854.49 502.008H856.97V503.336H854.634C853.952 503.336 853.493 503.448 853.258 503.672C853.024 503.885 852.906 504.152 852.906 504.472C852.906 504.835 853.05 505.123 853.338 505.336C853.626 505.549 854.026 505.656 854.538 505.656C855.029 505.656 855.466 505.544 855.85 505.32C856.245 505.096 856.528 504.765 856.698 504.328L857.034 505.528C856.842 506.029 856.496 506.419 855.994 506.696C855.504 506.973 854.88 507.112 854.122 507.112ZM864.481 507.112C863.542 507.112 862.817 506.872 862.305 506.392C861.793 505.901 861.537 505.181 861.537 504.232V496.568H863.537V504.184C863.537 504.589 863.638 504.904 863.841 505.128C864.054 505.352 864.348 505.464 864.721 505.464C865.169 505.464 865.542 505.347 865.841 505.112L866.401 506.536C866.166 506.728 865.878 506.872 865.537 506.968C865.196 507.064 864.844 507.112 864.481 507.112ZM860.129 500.12V498.52H865.825V500.12H860.129ZM868.046 507V498.456H870.046V507H868.046ZM869.054 497.048C868.681 497.048 868.372 496.931 868.126 496.696C867.892 496.461 867.774 496.179 867.774 495.848C867.774 495.507 867.892 495.224 868.126 495C868.372 494.765 868.681 494.648 869.054 494.648C869.428 494.648 869.732 494.76 869.966 494.984C870.212 495.197 870.334 495.469 870.334 495.8C870.334 496.152 870.217 496.451 869.982 496.696C869.748 496.931 869.438 497.048 869.054 497.048ZM875.311 507.112C874.597 507.112 873.909 507.021 873.247 506.84C872.597 506.648 872.079 506.419 871.695 506.152L872.463 504.632C872.847 504.877 873.306 505.08 873.839 505.24C874.373 505.4 874.906 505.48 875.439 505.48C876.069 505.48 876.522 505.395 876.799 505.224C877.087 505.053 877.231 504.824 877.231 504.536C877.231 504.301 877.135 504.125 876.943 504.008C876.751 503.88 876.501 503.784 876.191 503.72C875.882 503.656 875.535 503.597 875.151 503.544C874.778 503.491 874.399 503.421 874.015 503.336C873.642 503.24 873.301 503.107 872.991 502.936C872.682 502.755 872.431 502.515 872.239 502.216C872.047 501.917 871.951 501.523 871.951 501.032C871.951 500.488 872.106 500.019 872.415 499.624C872.725 499.219 873.157 498.909 873.711 498.696C874.277 498.472 874.943 498.36 875.711 498.36C876.287 498.36 876.869 498.424 877.455 498.552C878.042 498.68 878.527 498.861 878.911 499.096L878.143 500.616C877.738 500.371 877.327 500.205 876.911 500.12C876.506 500.024 876.101 499.976 875.695 499.976C875.087 499.976 874.634 500.067 874.335 500.248C874.047 500.429 873.903 500.659 873.903 500.936C873.903 501.192 873.999 501.384 874.191 501.512C874.383 501.64 874.634 501.741 874.943 501.816C875.253 501.891 875.594 501.955 875.967 502.008C876.351 502.051 876.73 502.12 877.103 502.216C877.477 502.312 877.818 502.445 878.127 502.616C878.447 502.776 878.703 503.005 878.895 503.304C879.087 503.603 879.183 503.992 879.183 504.472C879.183 505.005 879.023 505.469 878.703 505.864C878.394 506.259 877.951 506.568 877.375 506.792C876.799 507.005 876.111 507.112 875.311 507.112ZM888.97 495.8H891.05V507H888.97V495.8ZM883.178 507H881.098V495.8H883.178V507ZM889.13 502.2H883.002V500.424H889.13V502.2ZM897.475 507.112C896.75 507.112 896.11 506.979 895.555 506.712C895 506.435 894.568 506.019 894.259 505.464C893.95 504.899 893.795 504.189 893.795 503.336V498.456H895.795V503.064C895.795 503.832 895.966 504.408 896.307 504.792C896.659 505.165 897.155 505.352 897.795 505.352C898.264 505.352 898.67 505.256 899.011 505.064C899.363 504.872 899.635 504.584 899.827 504.2C900.03 503.816 900.131 503.341 900.131 502.776V498.456H902.131V507H900.227V504.696L900.563 505.4C900.275 505.955 899.854 506.381 899.299 506.68C898.744 506.968 898.136 507.112 897.475 507.112ZM909.486 507.112C908.76 507.112 908.115 506.952 907.549 506.632C906.984 506.312 906.536 505.832 906.206 505.192C905.886 504.541 905.726 503.72 905.726 502.728C905.726 501.725 905.891 500.904 906.222 500.264C906.563 499.624 907.016 499.149 907.582 498.84C908.158 498.52 908.792 498.36 909.486 498.36C910.328 498.36 911.07 498.541 911.71 498.904C912.36 499.267 912.872 499.773 913.246 500.424C913.63 501.075 913.822 501.843 913.822 502.728C913.822 503.613 913.63 504.381 913.246 505.032C912.872 505.683 912.36 506.195 911.71 506.568C911.07 506.931 910.328 507.112 909.486 507.112ZM904.75 507V495.128H906.75V500.44L906.59 502.712L906.654 504.984V507H904.75ZM909.262 505.4C909.742 505.4 910.168 505.293 910.542 505.08C910.926 504.867 911.23 504.557 911.454 504.152C911.678 503.747 911.79 503.272 911.79 502.728C911.79 502.173 911.678 501.699 911.454 501.304C911.23 500.899 910.926 500.589 910.542 500.376C910.168 500.163 909.742 500.056 909.262 500.056C908.782 500.056 908.35 500.163 907.966 500.376C907.582 500.589 907.278 500.899 907.054 501.304C906.83 501.699 906.718 502.173 906.718 502.728C906.718 503.272 906.83 503.747 907.054 504.152C907.278 504.557 907.582 504.867 907.966 505.08C908.35 505.293 908.782 505.4 909.262 505.4Z" fill="#FDFDFD"/>
<path d="M743.032 529.12C742.368 529.12 741.768 528.952 741.232 528.616C740.704 528.28 740.288 527.792 739.984 527.152C739.68 526.504 739.528 525.72 739.528 524.8C739.528 523.88 739.68 523.1 739.984 522.46C740.288 521.812 740.704 521.32 741.232 520.984C741.768 520.648 742.368 520.48 743.032 520.48C743.704 520.48 744.304 520.648 744.832 520.984C745.36 521.32 745.776 521.812 746.08 522.46C746.392 523.1 746.548 523.88 746.548 524.8C746.548 525.72 746.392 526.504 746.08 527.152C745.776 527.792 745.36 528.28 744.832 528.616C744.304 528.952 743.704 529.12 743.032 529.12ZM743.032 527.764C743.424 527.764 743.764 527.66 744.052 527.452C744.34 527.236 744.564 526.908 744.724 526.468C744.892 526.028 744.976 525.472 744.976 524.8C744.976 524.12 744.892 523.564 744.724 523.132C744.564 522.692 744.34 522.368 744.052 522.16C743.764 521.944 743.424 521.836 743.032 521.836C742.656 521.836 742.32 521.944 742.024 522.16C741.736 522.368 741.508 522.692 741.34 523.132C741.18 523.564 741.1 524.12 741.1 524.8C741.1 525.472 741.18 526.028 741.34 526.468C741.508 526.908 741.736 527.236 742.024 527.452C742.32 527.66 742.656 527.764 743.032 527.764ZM748.948 529L752.416 521.224L752.824 521.92H748.06L748.804 521.164V523.348H747.352V520.6H753.88V521.644L750.616 529H748.948ZM758.761 529V520.6H760.045L763.717 526.732H763.045L766.657 520.6H767.941L767.953 529H766.477L766.465 522.916H766.777L763.705 528.04H763.009L759.889 522.916H760.249V529H758.761ZM774.026 529V527.704L773.942 527.428V525.16C773.942 524.72 773.81 524.38 773.546 524.14C773.282 523.892 772.882 523.768 772.346 523.768C771.986 523.768 771.63 523.824 771.278 523.936C770.934 524.048 770.642 524.204 770.402 524.404L769.814 523.312C770.158 523.048 770.566 522.852 771.038 522.724C771.518 522.588 772.014 522.52 772.526 522.52C773.454 522.52 774.17 522.744 774.674 523.192C775.186 523.632 775.442 524.316 775.442 525.244V529H774.026ZM772.01 529.084C771.53 529.084 771.11 529.004 770.75 528.844C770.39 528.676 770.11 528.448 769.91 528.16C769.718 527.864 769.622 527.532 769.622 527.164C769.622 526.804 769.706 526.48 769.874 526.192C770.05 525.904 770.334 525.676 770.726 525.508C771.118 525.34 771.638 525.256 772.286 525.256H774.146V526.252H772.394C771.882 526.252 771.538 526.336 771.362 526.504C771.186 526.664 771.098 526.864 771.098 527.104C771.098 527.376 771.206 527.592 771.422 527.752C771.638 527.912 771.938 527.992 772.322 527.992C772.69 527.992 773.018 527.908 773.306 527.74C773.602 527.572 773.814 527.324 773.942 526.996L774.194 527.896C774.05 528.272 773.79 528.564 773.414 528.772C773.046 528.98 772.578 529.084 772.01 529.084ZM777.778 531.412C777.466 531.412 777.154 531.36 776.842 531.256C776.53 531.152 776.27 531.008 776.062 530.824L776.662 529.72C776.814 529.856 776.986 529.964 777.178 530.044C777.37 530.124 777.566 530.164 777.766 530.164C778.038 530.164 778.258 530.096 778.426 529.96C778.594 529.824 778.75 529.596 778.894 529.276L779.266 528.436L779.386 528.256L781.81 522.592H783.25L780.25 529.516C780.05 529.996 779.826 530.376 779.578 530.656C779.338 530.936 779.066 531.132 778.762 531.244C778.466 531.356 778.138 531.412 777.778 531.412ZM779.098 529.228L776.206 522.592H777.766L780.118 528.124L779.098 529.228ZM783.393 530.812L784.089 528.16L784.293 529.048C784.013 529.048 783.777 528.964 783.585 528.796C783.401 528.62 783.309 528.384 783.309 528.088C783.309 527.784 783.401 527.544 783.585 527.368C783.777 527.184 784.009 527.092 784.281 527.092C784.561 527.092 784.793 527.184 784.977 527.368C785.161 527.552 785.253 527.792 785.253 528.088C785.253 528.168 785.245 528.256 785.229 528.352C785.213 528.44 785.185 528.544 785.145 528.664C785.113 528.784 785.057 528.936 784.977 529.12L784.365 530.812H783.393ZM789.471 529V527.956L792.807 524.788C793.087 524.524 793.295 524.292 793.431 524.092C793.567 523.892 793.655 523.708 793.695 523.54C793.743 523.364 793.767 523.2 793.767 523.048C793.767 522.664 793.635 522.368 793.371 522.16C793.107 521.944 792.719 521.836 792.207 521.836C791.799 521.836 791.427 521.908 791.091 522.052C790.763 522.196 790.479 522.416 790.239 522.712L789.147 521.872C789.475 521.432 789.915 521.092 790.467 520.852C791.027 520.604 791.651 520.48 792.339 520.48C792.947 520.48 793.475 520.58 793.923 520.78C794.379 520.972 794.727 521.248 794.967 521.608C795.215 521.968 795.339 522.396 795.339 522.892C795.339 523.164 795.303 523.436 795.231 523.708C795.159 523.972 795.023 524.252 794.823 524.548C794.623 524.844 794.331 525.176 793.947 525.544L791.079 528.268L790.755 527.68H795.663V529H789.471ZM800.067 529.12C799.403 529.12 798.803 528.952 798.267 528.616C797.739 528.28 797.323 527.792 797.019 527.152C796.715 526.504 796.563 525.72 796.563 524.8C796.563 523.88 796.715 523.1 797.019 522.46C797.323 521.812 797.739 521.32 798.267 520.984C798.803 520.648 799.403 520.48 800.067 520.48C800.739 520.48 801.339 520.648 801.867 520.984C802.395 521.32 802.811 521.812 803.115 522.46C803.427 523.1 803.583 523.88 803.583 524.8C803.583 525.72 803.427 526.504 803.115 527.152C802.811 527.792 802.395 528.28 801.867 528.616C801.339 528.952 800.739 529.12 800.067 529.12ZM800.067 527.764C800.459 527.764 800.799 527.66 801.087 527.452C801.375 527.236 801.599 526.908 801.759 526.468C801.927 526.028 802.011 525.472 802.011 524.8C802.011 524.12 801.927 523.564 801.759 523.132C801.599 522.692 801.375 522.368 801.087 522.16C800.799 521.944 800.459 521.836 800.067 521.836C799.691 521.836 799.355 521.944 799.059 522.16C798.771 522.368 798.543 522.692 798.375 523.132C798.215 523.564 798.135 524.12 798.135 524.8C798.135 525.472 798.215 526.028 798.375 526.468C798.543 526.908 798.771 527.236 799.059 527.452C799.355 527.66 799.691 527.764 800.067 527.764ZM804.518 529V527.956L807.854 524.788C808.134 524.524 808.342 524.292 808.478 524.092C808.614 523.892 808.702 523.708 808.742 523.54C808.79 523.364 808.814 523.2 808.814 523.048C808.814 522.664 808.682 522.368 808.418 522.16C808.154 521.944 807.766 521.836 807.254 521.836C806.846 521.836 806.474 521.908 806.138 522.052C805.81 522.196 805.526 522.416 805.286 522.712L804.194 521.872C804.522 521.432 804.962 521.092 805.514 520.852C806.074 520.604 806.698 520.48 807.386 520.48C807.994 520.48 808.522 520.58 808.97 520.78C809.426 520.972 809.774 521.248 810.014 521.608C810.262 521.968 810.386 522.396 810.386 522.892C810.386 523.164 810.35 523.436 810.278 523.708C810.206 523.972 810.07 524.252 809.87 524.548C809.67 524.844 809.378 525.176 808.994 525.544L806.126 528.268L805.802 527.68H810.71V529H804.518ZM814.25 529.12C813.658 529.12 813.078 529.036 812.51 528.868C811.95 528.692 811.478 528.452 811.094 528.148L811.766 526.936C812.07 527.184 812.438 527.384 812.87 527.536C813.302 527.688 813.754 527.764 814.226 527.764C814.786 527.764 815.222 527.652 815.534 527.428C815.846 527.196 816.002 526.884 816.002 526.492C816.002 526.108 815.858 525.804 815.57 525.58C815.282 525.356 814.818 525.244 814.178 525.244H813.41V524.176L815.81 521.32L816.014 521.908H811.502V520.6H817.226V521.644L814.826 524.5L814.01 524.02H814.478C815.51 524.02 816.282 524.252 816.794 524.716C817.314 525.172 817.574 525.76 817.574 526.48C817.574 526.952 817.454 527.388 817.214 527.788C816.974 528.188 816.606 528.512 816.11 528.76C815.622 529 815.002 529.12 814.25 529.12Z" fill="#929292"/>
<path d="M996.504 503.832C996.504 504.696 996.184 505.432 995.544 506.04C994.915 506.637 993.997 507 992.792 507.128V508.92H991.48V507.144C990.691 507.091 989.944 506.947 989.24 506.712C988.536 506.477 987.976 506.179 987.56 505.816L988.28 504.2C988.675 504.52 989.155 504.792 989.72 505.016C990.285 505.229 990.872 505.363 991.48 505.416V502.216C990.723 502.035 990.088 501.837 989.576 501.624C989.075 501.4 988.653 501.08 988.312 500.664C987.971 500.237 987.8 499.677 987.8 498.984C987.8 498.12 988.115 497.384 988.744 496.776C989.373 496.168 990.285 495.805 991.48 495.688V493.88H992.792V495.656C993.389 495.688 993.971 495.789 994.536 495.96C995.112 496.131 995.613 496.355 996.04 496.632L995.384 498.248C994.573 497.779 993.709 497.491 992.792 497.384V500.616C993.56 500.797 994.195 500.995 994.696 501.208C995.208 501.421 995.635 501.741 995.976 502.168C996.328 502.584 996.504 503.139 996.504 503.832ZM989.864 498.888C989.864 499.24 990.003 499.523 990.28 499.736C990.557 499.949 990.957 500.131 991.48 500.28V497.432C990.936 497.517 990.531 497.688 990.264 497.944C989.997 498.2 989.864 498.515 989.864 498.888ZM992.792 505.384C993.357 505.299 993.773 505.133 994.04 504.888C994.317 504.643 994.456 504.339 994.456 503.976C994.456 503.613 994.312 503.325 994.024 503.112C993.736 502.888 993.325 502.701 992.792 502.552V505.384ZM1001.48 495.8V507H999.402V497.544H997.034V495.8H1001.48ZM1008.38 507.16C1007.48 507.16 1006.68 506.936 1005.98 506.488C1005.27 506.029 1004.72 505.368 1004.31 504.504C1003.91 503.629 1003.7 502.595 1003.7 501.4C1003.7 500.205 1003.91 499.176 1004.31 498.312C1004.72 497.437 1005.27 496.776 1005.98 496.328C1006.68 495.869 1007.48 495.64 1008.38 495.64C1009.27 495.64 1010.07 495.869 1010.78 496.328C1011.49 496.776 1012.05 497.437 1012.46 498.312C1012.86 499.176 1013.06 500.205 1013.06 501.4C1013.06 502.595 1012.86 503.629 1012.46 504.504C1012.05 505.368 1011.49 506.029 1010.78 506.488C1010.07 506.936 1009.27 507.16 1008.38 507.16ZM1008.38 505.352C1009.18 505.352 1009.81 505.021 1010.26 504.36C1010.73 503.699 1010.97 502.712 1010.97 501.4C1010.97 500.088 1010.73 499.101 1010.26 498.44C1009.81 497.779 1009.18 497.448 1008.38 497.448C1007.59 497.448 1006.96 497.779 1006.49 498.44C1006.03 499.101 1005.8 500.088 1005.8 501.4C1005.8 502.712 1006.03 503.699 1006.49 504.36C1006.96 505.021 1007.59 505.352 1008.38 505.352ZM1015.55 504.456C1015.92 504.456 1016.23 504.579 1016.47 504.824C1016.72 505.069 1016.84 505.389 1016.84 505.784C1016.84 505.955 1016.82 506.136 1016.76 506.328C1016.72 506.509 1016.62 506.787 1016.47 507.16L1015.66 509.416H1014.36L1015 506.968C1014.77 506.872 1014.58 506.723 1014.44 506.52C1014.31 506.307 1014.25 506.061 1014.25 505.784C1014.25 505.389 1014.37 505.069 1014.62 504.824C1014.86 504.579 1015.17 504.456 1015.55 504.456ZM1023.11 500.424C1024.15 500.552 1024.94 500.904 1025.48 501.48C1026.02 502.056 1026.3 502.776 1026.3 503.64C1026.3 504.291 1026.13 504.883 1025.8 505.416C1025.47 505.949 1024.97 506.376 1024.3 506.696C1023.64 507.005 1022.82 507.16 1021.86 507.16C1021.06 507.16 1020.29 507.048 1019.54 506.824C1018.81 506.589 1018.18 506.269 1017.66 505.864L1018.55 504.248C1018.96 504.589 1019.45 504.861 1020.02 505.064C1020.61 505.256 1021.21 505.352 1021.83 505.352C1022.57 505.352 1023.14 505.203 1023.56 504.904C1023.99 504.595 1024.2 504.179 1024.2 503.656C1024.2 503.133 1024 502.728 1023.59 502.44C1023.2 502.141 1022.59 501.992 1021.77 501.992H1020.74V500.568L1023.29 497.544H1018.2V495.8H1025.83V497.192L1023.11 500.424ZM1032.75 500.088C1033.48 500.088 1034.14 500.232 1034.73 500.52C1035.32 500.797 1035.77 501.197 1036.11 501.72C1036.44 502.243 1036.6 502.845 1036.6 503.528C1036.6 504.253 1036.42 504.893 1036.06 505.448C1035.69 505.992 1035.2 506.413 1034.59 506.712C1033.97 507.011 1033.27 507.16 1032.51 507.16C1030.97 507.16 1029.77 506.68 1028.92 505.72C1028.08 504.76 1027.66 503.384 1027.66 501.592C1027.66 500.333 1027.89 499.261 1028.35 498.376C1028.8 497.48 1029.44 496.803 1030.27 496.344C1031.1 495.875 1032.06 495.64 1033.15 495.64C1033.72 495.64 1034.26 495.704 1034.76 495.832C1035.27 495.949 1035.72 496.125 1036.09 496.36L1035.32 497.928C1034.77 497.565 1034.06 497.384 1033.19 497.384C1032.12 497.384 1031.27 497.715 1030.67 498.376C1030.06 499.037 1029.75 499.992 1029.75 501.24V501.256C1030.08 500.872 1030.51 500.584 1031.02 500.392C1031.53 500.189 1032.11 500.088 1032.75 500.088ZM1032.39 505.528C1033.04 505.528 1033.57 505.357 1033.98 505.016C1034.38 504.664 1034.59 504.2 1034.59 503.624C1034.59 503.037 1034.38 502.573 1033.98 502.232C1033.57 501.891 1033.03 501.72 1032.35 501.72C1031.67 501.72 1031.12 501.901 1030.7 502.264C1030.28 502.627 1030.07 503.085 1030.07 503.64C1030.07 504.184 1030.28 504.637 1030.68 505C1031.1 505.352 1031.67 505.528 1032.39 505.528ZM1041.46 495.64C1043 495.64 1044.19 496.12 1045.03 497.08C1045.89 498.04 1046.31 499.416 1046.31 501.208C1046.31 502.467 1046.08 503.544 1045.62 504.44C1045.17 505.325 1044.52 506.003 1043.69 506.472C1042.87 506.931 1041.91 507.16 1040.82 507.16C1040.25 507.16 1039.7 507.101 1039.19 506.984C1038.69 506.856 1038.25 506.675 1037.88 506.44L1038.65 504.872C1039.2 505.235 1039.91 505.416 1040.78 505.416C1041.85 505.416 1042.7 505.085 1043.3 504.424C1043.91 503.763 1044.22 502.808 1044.22 501.56V501.544C1043.89 501.928 1043.46 502.221 1042.95 502.424C1042.44 502.616 1041.86 502.712 1041.22 502.712C1040.49 502.712 1039.83 502.573 1039.24 502.296C1038.65 502.008 1038.2 501.603 1037.86 501.08C1037.53 500.557 1037.37 499.955 1037.37 499.272C1037.37 498.547 1037.55 497.912 1037.91 497.368C1038.28 496.813 1038.77 496.387 1039.38 496.088C1040 495.789 1040.7 495.64 1041.46 495.64ZM1041.62 501.08C1042.3 501.08 1042.84 500.899 1043.26 500.536C1043.68 500.173 1043.9 499.715 1043.9 499.16C1043.9 498.616 1043.69 498.168 1043.27 497.816C1042.87 497.453 1042.3 497.272 1041.58 497.272C1040.93 497.272 1040.4 497.448 1039.99 497.8C1039.59 498.141 1039.38 498.6 1039.38 499.176C1039.38 499.763 1039.59 500.227 1039.99 500.568C1040.4 500.909 1040.94 501.08 1041.62 501.08ZM1048.78 507.112C1048.42 507.112 1048.11 506.989 1047.85 506.744C1047.6 506.488 1047.47 506.168 1047.47 505.784C1047.47 505.389 1047.59 505.069 1047.84 504.824C1048.09 504.579 1048.41 504.456 1048.78 504.456C1049.15 504.456 1049.46 504.579 1049.71 504.824C1049.96 505.069 1050.09 505.389 1050.09 505.784C1050.09 506.168 1049.96 506.488 1049.71 506.744C1049.45 506.989 1049.14 507.112 1048.78 507.112ZM1054.94 500.136C1056.52 500.136 1057.69 500.445 1058.45 501.064C1059.2 501.672 1059.58 502.504 1059.58 503.56C1059.58 504.232 1059.42 504.84 1059.09 505.384C1058.76 505.928 1058.26 506.36 1057.6 506.68C1056.94 507 1056.12 507.16 1055.15 507.16C1054.35 507.16 1053.58 507.048 1052.83 506.824C1052.08 506.589 1051.45 506.269 1050.94 505.864L1051.82 504.248C1052.24 504.589 1052.73 504.861 1053.31 505.064C1053.9 505.256 1054.5 505.352 1055.12 505.352C1055.85 505.352 1056.43 505.203 1056.85 504.904C1057.27 504.595 1057.49 504.173 1057.49 503.64C1057.49 503.064 1057.26 502.632 1056.8 502.344C1056.35 502.045 1055.58 501.896 1054.48 501.896H1051.77L1052.35 495.8H1058.93V497.544H1054.11L1053.87 500.136H1054.94ZM1064.21 500.136C1065.79 500.136 1066.95 500.445 1067.71 501.064C1068.47 501.672 1068.85 502.504 1068.85 503.56C1068.85 504.232 1068.68 504.84 1068.35 505.384C1068.02 505.928 1067.53 506.36 1066.86 506.68C1066.2 507 1065.39 507.16 1064.42 507.16C1063.62 507.16 1062.84 507.048 1062.1 506.824C1061.35 506.589 1060.72 506.269 1060.21 505.864L1061.09 504.248C1061.5 504.589 1062 504.861 1062.58 505.064C1063.16 505.256 1063.77 505.352 1064.38 505.352C1065.12 505.352 1065.7 505.203 1066.11 504.904C1066.54 504.595 1066.75 504.173 1066.75 503.64C1066.75 503.064 1066.52 502.632 1066.06 502.344C1065.62 502.045 1064.84 501.896 1063.74 501.896H1061.04L1061.62 495.8H1068.19V497.544H1063.38L1063.14 500.136H1064.21Z" fill="#FDFDFD"/>
<path d="M1047.9 527.5V522.1H1049.19V527.5H1047.9ZM1045.78 525.4V524.2H1051.31V525.4H1045.78ZM1055.39 529.12C1054.8 529.12 1054.22 529.036 1053.65 528.868C1053.09 528.692 1052.62 528.452 1052.23 528.148L1052.89 526.936C1053.2 527.184 1053.57 527.384 1054 527.536C1054.44 527.688 1054.89 527.764 1055.37 527.764C1055.92 527.764 1056.35 527.648 1056.66 527.416C1056.98 527.184 1057.14 526.872 1057.14 526.48C1057.14 526.216 1057.07 525.984 1056.94 525.784C1056.81 525.584 1056.58 525.432 1056.24 525.328C1055.91 525.224 1055.46 525.172 1054.89 525.172H1052.86L1053.29 520.6H1058.22V521.908H1053.87L1054.68 521.164L1054.36 524.584L1053.54 523.852H1055.23C1056.07 523.852 1056.73 523.964 1057.24 524.188C1057.75 524.404 1058.12 524.708 1058.35 525.1C1058.59 525.484 1058.71 525.924 1058.71 526.42C1058.71 526.908 1058.59 527.356 1058.35 527.764C1058.11 528.172 1057.75 528.5 1057.25 528.748C1056.76 528.996 1056.14 529.12 1055.39 529.12ZM1060.67 529L1066.41 520.6H1067.58L1061.85 529H1060.67ZM1061.37 525.124C1060.98 525.124 1060.63 525.028 1060.32 524.836C1060.02 524.644 1059.78 524.376 1059.62 524.032C1059.45 523.688 1059.36 523.284 1059.36 522.82C1059.36 522.356 1059.45 521.952 1059.62 521.608C1059.78 521.264 1060.02 520.996 1060.32 520.804C1060.63 520.612 1060.98 520.516 1061.37 520.516C1061.78 520.516 1062.13 520.612 1062.42 520.804C1062.73 520.996 1062.96 521.264 1063.13 521.608C1063.3 521.952 1063.38 522.356 1063.38 522.82C1063.38 523.284 1063.3 523.688 1063.13 524.032C1062.96 524.376 1062.73 524.644 1062.42 524.836C1062.13 525.028 1061.78 525.124 1061.37 525.124ZM1061.38 524.284C1061.7 524.284 1061.95 524.16 1062.12 523.912C1062.31 523.656 1062.4 523.292 1062.4 522.82C1062.4 522.348 1062.31 521.988 1062.12 521.74C1061.95 521.484 1061.7 521.356 1061.38 521.356C1061.06 521.356 1060.8 521.484 1060.61 521.74C1060.43 521.996 1060.34 522.356 1060.34 522.82C1060.34 523.284 1060.43 523.644 1060.61 523.9C1060.8 524.156 1061.06 524.284 1061.38 524.284ZM1066.88 529.084C1066.48 529.084 1066.14 528.988 1065.83 528.796C1065.53 528.604 1065.29 528.336 1065.12 527.992C1064.96 527.648 1064.87 527.244 1064.87 526.78C1064.87 526.316 1064.96 525.912 1065.12 525.568C1065.29 525.224 1065.53 524.956 1065.83 524.764C1066.14 524.572 1066.48 524.476 1066.88 524.476C1067.28 524.476 1067.64 524.572 1067.93 524.764C1068.24 524.956 1068.47 525.224 1068.64 525.568C1068.81 525.912 1068.89 526.316 1068.89 526.78C1068.89 527.244 1068.81 527.648 1068.64 527.992C1068.47 528.336 1068.24 528.604 1067.93 528.796C1067.64 528.988 1067.28 529.084 1066.88 529.084ZM1066.88 528.244C1067.2 528.244 1067.45 528.116 1067.63 527.86C1067.82 527.604 1067.91 527.244 1067.91 526.78C1067.91 526.316 1067.82 525.956 1067.63 525.7C1067.45 525.444 1067.2 525.316 1066.88 525.316C1066.56 525.316 1066.31 525.444 1066.12 525.7C1065.94 525.948 1065.84 526.308 1065.84 526.78C1065.84 527.252 1065.94 527.616 1066.12 527.872C1066.31 528.12 1066.56 528.244 1066.88 528.244Z" fill="#16C59B"/>
<g filter="url(#filter1_d_0_1)">
<path fill-rule="evenodd" clip-rule="evenodd" d="M1320.3 208.352L1329.92 198.505C1331.89 196.498 1335.11 196.498 1337.08 198.505L1346.7 208.352C1346.85 208.511 1347 208.676 1347.13 208.846H1487C1495.28 208.846 1502 215.562 1502 223.846V269.846C1502 278.131 1495.28 284.846 1487 284.846H1180C1171.72 284.846 1165 278.131 1165 269.846V223.846C1165 215.562 1171.72 208.846 1180 208.846H1319.87C1320 208.676 1320.15 208.511 1320.3 208.352Z" fill="#313131"/>
</g>
<path d="M1184.92 241.846L1189.96 230.646H1192.01L1197.06 241.846H1194.89L1190.55 231.75H1191.38L1187.06 241.846H1184.92ZM1187.24 239.254L1187.8 237.622H1193.85L1194.41 239.254H1187.24ZM1198.57 241.846V232.822C1198.57 231.926 1198.83 231.211 1199.35 230.678C1199.89 230.134 1200.64 229.862 1201.62 229.862C1201.98 229.862 1202.31 229.899 1202.62 229.974C1202.94 230.048 1203.2 230.166 1203.42 230.326L1202.87 231.83C1202.72 231.712 1202.55 231.627 1202.36 231.574C1202.17 231.51 1201.97 231.478 1201.77 231.478C1201.35 231.478 1201.04 231.595 1200.82 231.83C1200.61 232.054 1200.5 232.395 1200.5 232.854V233.814L1200.57 234.71V241.846H1198.57ZM1197.16 234.966V233.366H1202.86V234.966H1197.16ZM1207.42 241.958C1206.48 241.958 1205.75 241.718 1205.24 241.238C1204.73 240.747 1204.47 240.027 1204.47 239.078V231.414H1206.47V239.03C1206.47 239.435 1206.58 239.75 1206.78 239.974C1206.99 240.198 1207.29 240.31 1207.66 240.31C1208.11 240.31 1208.48 240.192 1208.78 239.958L1209.34 241.382C1209.1 241.574 1208.82 241.718 1208.47 241.814C1208.13 241.91 1207.78 241.958 1207.42 241.958ZM1203.07 234.966V233.366H1208.76V234.966H1203.07ZM1214.72 241.958C1213.77 241.958 1212.94 241.771 1212.22 241.398C1211.52 241.014 1210.97 240.491 1210.57 239.83C1210.19 239.168 1210 238.416 1210 237.574C1210 236.72 1210.19 235.968 1210.56 235.318C1210.94 234.656 1211.47 234.139 1212.13 233.766C1212.8 233.392 1213.56 233.206 1214.41 233.206C1215.25 233.206 1215.99 233.387 1216.64 233.75C1217.29 234.112 1217.8 234.624 1218.17 235.286C1218.55 235.947 1218.73 236.726 1218.73 237.622C1218.73 237.707 1218.73 237.803 1218.72 237.91C1218.72 238.016 1218.71 238.118 1218.7 238.214H1211.58V236.886H1217.65L1216.86 237.302C1216.87 236.811 1216.77 236.379 1216.56 236.006C1216.35 235.632 1216.05 235.339 1215.68 235.126C1215.32 234.912 1214.89 234.806 1214.41 234.806C1213.92 234.806 1213.49 234.912 1213.12 235.126C1212.76 235.339 1212.47 235.638 1212.25 236.022C1212.05 236.395 1211.95 236.838 1211.95 237.35V237.67C1211.95 238.182 1212.07 238.635 1212.3 239.03C1212.54 239.424 1212.87 239.728 1213.29 239.942C1213.72 240.155 1214.21 240.262 1214.77 240.262C1215.25 240.262 1215.68 240.187 1216.06 240.038C1216.45 239.888 1216.79 239.654 1217.09 239.334L1218.16 240.566C1217.77 241.014 1217.29 241.36 1216.7 241.606C1216.13 241.84 1215.47 241.958 1214.72 241.958ZM1220.66 241.846V233.302H1222.56V235.654L1222.34 234.966C1222.59 234.39 1222.99 233.952 1223.54 233.654C1224.09 233.355 1224.78 233.206 1225.6 233.206V235.11C1225.51 235.088 1225.43 235.078 1225.36 235.078C1225.29 235.067 1225.21 235.062 1225.14 235.062C1224.38 235.062 1223.78 235.286 1223.33 235.734C1222.88 236.171 1222.66 236.827 1222.66 237.702V241.846H1220.66ZM1236.8 242.006C1235.27 242.006 1234.06 241.574 1233.19 240.71C1232.32 239.846 1231.89 238.598 1231.89 236.966V230.646H1233.97V236.886C1233.97 238.038 1234.22 238.875 1234.71 239.398C1235.21 239.92 1235.91 240.182 1236.82 240.182C1237.73 240.182 1238.43 239.92 1238.92 239.398C1239.41 238.875 1239.65 238.038 1239.65 236.886V230.646H1241.7V236.966C1241.7 238.598 1241.26 239.846 1240.39 240.71C1239.52 241.574 1238.33 242.006 1236.8 242.006ZM1247.06 241.958C1246.35 241.958 1245.66 241.867 1245 241.686C1244.35 241.494 1243.83 241.264 1243.45 240.998L1244.21 239.478C1244.6 239.723 1245.06 239.926 1245.59 240.086C1246.12 240.246 1246.66 240.326 1247.19 240.326C1247.82 240.326 1248.27 240.24 1248.55 240.07C1248.84 239.899 1248.98 239.67 1248.98 239.382C1248.98 239.147 1248.89 238.971 1248.69 238.854C1248.5 238.726 1248.25 238.63 1247.94 238.566C1247.63 238.502 1247.29 238.443 1246.9 238.39C1246.53 238.336 1246.15 238.267 1245.77 238.182C1245.39 238.086 1245.05 237.952 1244.74 237.782C1244.43 237.6 1244.18 237.36 1243.99 237.062C1243.8 236.763 1243.7 236.368 1243.7 235.878C1243.7 235.334 1243.86 234.864 1244.17 234.47C1244.47 234.064 1244.91 233.755 1245.46 233.542C1246.03 233.318 1246.69 233.206 1247.46 233.206C1248.04 233.206 1248.62 233.27 1249.21 233.398C1249.79 233.526 1250.28 233.707 1250.66 233.942L1249.89 235.462C1249.49 235.216 1249.08 235.051 1248.66 234.966C1248.26 234.87 1247.85 234.822 1247.45 234.822C1246.84 234.822 1246.38 234.912 1246.09 235.094C1245.8 235.275 1245.65 235.504 1245.65 235.782C1245.65 236.038 1245.75 236.23 1245.94 236.358C1246.13 236.486 1246.38 236.587 1246.69 236.662C1247 236.736 1247.34 236.8 1247.72 236.854C1248.1 236.896 1248.48 236.966 1248.85 237.062C1249.23 237.158 1249.57 237.291 1249.88 237.462C1250.2 237.622 1250.45 237.851 1250.65 238.15C1250.84 238.448 1250.93 238.838 1250.93 239.318C1250.93 239.851 1250.77 240.315 1250.45 240.71C1250.14 241.104 1249.7 241.414 1249.13 241.638C1248.55 241.851 1247.86 241.958 1247.06 241.958ZM1256.67 241.958C1255.72 241.958 1254.89 241.771 1254.18 241.398C1253.47 241.014 1252.92 240.491 1252.53 239.83C1252.14 239.168 1251.95 238.416 1251.95 237.574C1251.95 236.72 1252.14 235.968 1252.51 235.318C1252.9 234.656 1253.42 234.139 1254.08 233.766C1254.75 233.392 1255.51 233.206 1256.37 233.206C1257.2 233.206 1257.94 233.387 1258.59 233.75C1259.24 234.112 1259.75 234.624 1260.13 235.286C1260.5 235.947 1260.69 236.726 1260.69 237.622C1260.69 237.707 1260.68 237.803 1260.67 237.91C1260.67 238.016 1260.67 238.118 1260.66 238.214H1253.54V236.886H1259.6L1258.82 237.302C1258.83 236.811 1258.73 236.379 1258.51 236.006C1258.3 235.632 1258.01 235.339 1257.63 235.126C1257.27 234.912 1256.85 234.806 1256.37 234.806C1255.88 234.806 1255.45 234.912 1255.07 235.126C1254.71 235.339 1254.42 235.638 1254.21 236.022C1254.01 236.395 1253.9 236.838 1253.9 237.35V237.67C1253.9 238.182 1254.02 238.635 1254.26 239.03C1254.49 239.424 1254.82 239.728 1255.25 239.942C1255.67 240.155 1256.17 240.262 1256.72 240.262C1257.2 240.262 1257.63 240.187 1258.02 240.038C1258.4 239.888 1258.74 239.654 1259.04 239.334L1260.11 240.566C1259.73 241.014 1259.24 241.36 1258.66 241.606C1258.08 241.84 1257.42 241.958 1256.67 241.958ZM1270.69 242.006C1269.82 242.006 1268.98 241.883 1268.18 241.638C1267.38 241.382 1266.75 241.056 1266.28 240.662L1267 239.046C1267.45 239.398 1268 239.691 1268.66 239.926C1269.32 240.16 1270 240.278 1270.69 240.278C1271.28 240.278 1271.76 240.214 1272.12 240.086C1272.48 239.958 1272.75 239.787 1272.92 239.574C1273.09 239.35 1273.17 239.099 1273.17 238.822C1273.17 238.48 1273.05 238.208 1272.81 238.006C1272.56 237.792 1272.24 237.627 1271.85 237.51C1271.46 237.382 1271.03 237.264 1270.55 237.158C1270.08 237.051 1269.61 236.928 1269.13 236.79C1268.66 236.64 1268.23 236.454 1267.83 236.23C1267.45 235.995 1267.13 235.686 1266.89 235.302C1266.64 234.918 1266.52 234.427 1266.52 233.83C1266.52 233.222 1266.68 232.667 1267 232.166C1267.33 231.654 1267.83 231.248 1268.49 230.95C1269.16 230.64 1270.01 230.486 1271.03 230.486C1271.7 230.486 1272.37 230.571 1273.03 230.742C1273.69 230.912 1274.27 231.158 1274.76 231.478L1274.1 233.094C1273.6 232.795 1273.08 232.576 1272.55 232.438C1272.02 232.288 1271.51 232.214 1271.01 232.214C1270.44 232.214 1269.97 232.283 1269.61 232.422C1269.25 232.56 1268.99 232.742 1268.82 232.966C1268.66 233.19 1268.58 233.446 1268.58 233.734C1268.58 234.075 1268.7 234.352 1268.93 234.566C1269.18 234.768 1269.49 234.928 1269.88 235.046C1270.27 235.163 1270.71 235.28 1271.19 235.398C1271.67 235.504 1272.15 235.627 1272.61 235.766C1273.09 235.904 1273.53 236.086 1273.91 236.31C1274.31 236.534 1274.62 236.838 1274.85 237.222C1275.1 237.606 1275.22 238.091 1275.22 238.678C1275.22 239.275 1275.06 239.83 1274.73 240.342C1274.41 240.843 1273.91 241.248 1273.24 241.558C1272.57 241.856 1271.72 242.006 1270.69 242.006ZM1280.31 241.958C1279.37 241.958 1278.65 241.718 1278.13 241.238C1277.62 240.747 1277.37 240.027 1277.37 239.078V231.414H1279.37V239.03C1279.37 239.435 1279.47 239.75 1279.67 239.974C1279.88 240.198 1280.18 240.31 1280.55 240.31C1281 240.31 1281.37 240.192 1281.67 239.958L1282.23 241.382C1281.99 241.574 1281.71 241.718 1281.37 241.814C1281.02 241.91 1280.67 241.958 1280.31 241.958ZM1275.96 234.966V233.366H1281.65V234.966H1275.96ZM1289.14 241.846V240.118L1289.03 239.75V236.726C1289.03 236.139 1288.85 235.686 1288.5 235.366C1288.15 235.035 1287.61 234.87 1286.9 234.87C1286.42 234.87 1285.94 234.944 1285.47 235.094C1285.02 235.243 1284.63 235.451 1284.31 235.718L1283.52 234.262C1283.98 233.91 1284.53 233.648 1285.15 233.478C1285.79 233.296 1286.46 233.206 1287.14 233.206C1288.38 233.206 1289.33 233.504 1290 234.102C1290.69 234.688 1291.03 235.6 1291.03 236.838V241.846H1289.14ZM1286.45 241.958C1285.81 241.958 1285.25 241.851 1284.77 241.638C1284.29 241.414 1283.92 241.11 1283.65 240.726C1283.39 240.331 1283.27 239.888 1283.27 239.398C1283.27 238.918 1283.38 238.486 1283.6 238.102C1283.84 237.718 1284.22 237.414 1284.74 237.19C1285.26 236.966 1285.95 236.854 1286.82 236.854H1289.3V238.182H1286.96C1286.28 238.182 1285.82 238.294 1285.59 238.518C1285.35 238.731 1285.23 238.998 1285.23 239.318C1285.23 239.68 1285.38 239.968 1285.67 240.182C1285.95 240.395 1286.35 240.502 1286.87 240.502C1287.36 240.502 1287.79 240.39 1288.18 240.166C1288.57 239.942 1288.86 239.611 1289.03 239.174L1289.36 240.374C1289.17 240.875 1288.82 241.264 1288.32 241.542C1287.83 241.819 1287.21 241.958 1286.45 241.958ZM1296.81 241.958C1295.87 241.958 1295.15 241.718 1294.63 241.238C1294.12 240.747 1293.87 240.027 1293.87 239.078V231.414H1295.87V239.03C1295.87 239.435 1295.97 239.75 1296.17 239.974C1296.38 240.198 1296.68 240.31 1297.05 240.31C1297.5 240.31 1297.87 240.192 1298.17 239.958L1298.73 241.382C1298.49 241.574 1298.21 241.718 1297.87 241.814C1297.52 241.91 1297.17 241.958 1296.81 241.958ZM1292.46 234.966V233.366H1298.15V234.966H1292.46ZM1300.37 241.846V233.302H1302.37V241.846H1300.37ZM1301.38 231.894C1301.01 231.894 1300.7 231.776 1300.45 231.542C1300.22 231.307 1300.1 231.024 1300.1 230.694C1300.1 230.352 1300.22 230.07 1300.45 229.846C1300.7 229.611 1301.01 229.494 1301.38 229.494C1301.76 229.494 1302.06 229.606 1302.29 229.83C1302.54 230.043 1302.66 230.315 1302.66 230.646C1302.66 230.998 1302.55 231.296 1302.31 231.542C1302.08 231.776 1301.77 231.894 1301.38 231.894ZM1307.64 241.958C1306.92 241.958 1306.24 241.867 1305.58 241.686C1304.92 241.494 1304.41 241.264 1304.02 240.998L1304.79 239.478C1305.18 239.723 1305.63 239.926 1306.17 240.086C1306.7 240.246 1307.23 240.326 1307.77 240.326C1308.4 240.326 1308.85 240.24 1309.13 240.07C1309.42 239.899 1309.56 239.67 1309.56 239.382C1309.56 239.147 1309.46 238.971 1309.27 238.854C1309.08 238.726 1308.83 238.63 1308.52 238.566C1308.21 238.502 1307.86 238.443 1307.48 238.39C1307.11 238.336 1306.73 238.267 1306.34 238.182C1305.97 238.086 1305.63 237.952 1305.32 237.782C1305.01 237.6 1304.76 237.36 1304.57 237.062C1304.38 236.763 1304.28 236.368 1304.28 235.878C1304.28 235.334 1304.43 234.864 1304.74 234.47C1305.05 234.064 1305.48 233.755 1306.04 233.542C1306.6 233.318 1307.27 233.206 1308.04 233.206C1308.62 233.206 1309.2 233.27 1309.78 233.398C1310.37 233.526 1310.86 233.707 1311.24 233.942L1310.47 235.462C1310.07 235.216 1309.66 235.051 1309.24 234.966C1308.83 234.87 1308.43 234.822 1308.02 234.822C1307.42 234.822 1306.96 234.912 1306.66 235.094C1306.38 235.275 1306.23 235.504 1306.23 235.782C1306.23 236.038 1306.33 236.23 1306.52 236.358C1306.71 236.486 1306.96 236.587 1307.27 236.662C1307.58 236.736 1307.92 236.8 1308.3 236.854C1308.68 236.896 1309.06 236.966 1309.43 237.062C1309.8 237.158 1310.15 237.291 1310.46 237.462C1310.78 237.622 1311.03 237.851 1311.22 238.15C1311.42 238.448 1311.51 238.838 1311.51 239.318C1311.51 239.851 1311.35 240.315 1311.03 240.71C1310.72 241.104 1310.28 241.414 1309.7 241.638C1309.13 241.851 1308.44 241.958 1307.64 241.958ZM1321.3 230.646H1323.38V241.846H1321.3V230.646ZM1315.51 241.846H1313.43V230.646H1315.51V241.846ZM1321.46 237.046H1315.33V235.27H1321.46V237.046ZM1329.8 241.958C1329.08 241.958 1328.44 241.824 1327.88 241.558C1327.33 241.28 1326.9 240.864 1326.59 240.31C1326.28 239.744 1326.12 239.035 1326.12 238.182V233.302H1328.12V237.91C1328.12 238.678 1328.29 239.254 1328.64 239.638C1328.99 240.011 1329.48 240.198 1330.12 240.198C1330.59 240.198 1331 240.102 1331.34 239.91C1331.69 239.718 1331.96 239.43 1332.16 239.046C1332.36 238.662 1332.46 238.187 1332.46 237.622V233.302H1334.46V241.846H1332.56V239.542L1332.89 240.246C1332.6 240.8 1332.18 241.227 1331.63 241.526C1331.07 241.814 1330.46 241.958 1329.8 241.958ZM1341.81 241.958C1341.09 241.958 1340.44 241.798 1339.88 241.478C1339.31 241.158 1338.86 240.678 1338.53 240.038C1338.21 239.387 1338.05 238.566 1338.05 237.574C1338.05 236.571 1338.22 235.75 1338.55 235.11C1338.89 234.47 1339.34 233.995 1339.91 233.686C1340.49 233.366 1341.12 233.206 1341.81 233.206C1342.66 233.206 1343.4 233.387 1344.04 233.75C1344.69 234.112 1345.2 234.619 1345.57 235.27C1345.96 235.92 1346.15 236.688 1346.15 237.574C1346.15 238.459 1345.96 239.227 1345.57 239.878C1345.2 240.528 1344.69 241.04 1344.04 241.414C1343.4 241.776 1342.66 241.958 1341.81 241.958ZM1337.08 241.846V229.974H1339.08V235.286L1338.92 237.558L1338.98 239.83V241.846H1337.08ZM1341.59 240.246C1342.07 240.246 1342.5 240.139 1342.87 239.926C1343.25 239.712 1343.56 239.403 1343.78 238.998C1344.01 238.592 1344.12 238.118 1344.12 237.574C1344.12 237.019 1344.01 236.544 1343.78 236.15C1343.56 235.744 1343.25 235.435 1342.87 235.222C1342.5 235.008 1342.07 234.902 1341.59 234.902C1341.11 234.902 1340.68 235.008 1340.29 235.222C1339.91 235.435 1339.61 235.744 1339.38 236.15C1339.16 236.544 1339.05 237.019 1339.05 237.574C1339.05 238.118 1339.16 238.592 1339.38 238.998C1339.61 239.403 1339.91 239.712 1340.29 239.926C1340.68 240.139 1341.11 240.246 1341.59 240.246Z" fill="#FDFDFD"/>
<path d="M1186.13 263.846V255.446H1189.58C1190.33 255.446 1190.96 255.566 1191.49 255.806C1192.03 256.046 1192.44 256.39 1192.73 256.838C1193.02 257.286 1193.16 257.818 1193.16 258.434C1193.16 259.05 1193.02 259.582 1192.73 260.03C1192.44 260.478 1192.03 260.822 1191.49 261.062C1190.96 261.302 1190.33 261.422 1189.58 261.422H1186.99L1187.69 260.69V263.846H1186.13ZM1187.69 260.858L1186.99 260.102H1189.51C1190.2 260.102 1190.72 259.958 1191.06 259.67C1191.41 259.374 1191.59 258.962 1191.59 258.434C1191.59 257.898 1191.41 257.486 1191.06 257.198C1190.72 256.91 1190.2 256.766 1189.51 256.766H1186.99L1187.69 255.998V260.858ZM1194.52 263.846V257.438H1195.94V259.202L1195.78 258.686C1195.97 258.254 1196.27 257.926 1196.68 257.702C1197.09 257.478 1197.61 257.366 1198.22 257.366V258.794C1198.16 258.778 1198.1 258.77 1198.04 258.77C1197.99 258.762 1197.93 258.758 1197.88 258.758C1197.31 258.758 1196.86 258.926 1196.52 259.262C1196.18 259.59 1196.02 260.082 1196.02 260.738V263.846H1194.52ZM1202.45 263.93C1201.74 263.93 1201.11 263.79 1200.58 263.51C1200.05 263.222 1199.64 262.83 1199.34 262.334C1199.05 261.838 1198.91 261.274 1198.91 260.642C1198.91 260.002 1199.05 259.438 1199.33 258.95C1199.62 258.454 1200.01 258.066 1200.51 257.786C1201.01 257.506 1201.58 257.366 1202.22 257.366C1202.85 257.366 1203.4 257.502 1203.89 257.774C1204.38 258.046 1204.76 258.43 1205.04 258.926C1205.32 259.422 1205.46 260.006 1205.46 260.678C1205.46 260.742 1205.46 260.814 1205.45 260.894C1205.45 260.974 1205.45 261.05 1205.44 261.122H1200.1V260.126H1204.65L1204.06 260.438C1204.07 260.07 1203.99 259.746 1203.83 259.466C1203.67 259.186 1203.45 258.966 1203.17 258.806C1202.9 258.646 1202.58 258.566 1202.22 258.566C1201.85 258.566 1201.53 258.646 1201.25 258.806C1200.98 258.966 1200.76 259.19 1200.6 259.478C1200.45 259.758 1200.37 260.09 1200.37 260.474V260.714C1200.37 261.098 1200.46 261.438 1200.64 261.734C1200.81 262.03 1201.06 262.258 1201.38 262.418C1201.7 262.578 1202.07 262.658 1202.49 262.658C1202.85 262.658 1203.17 262.602 1203.46 262.49C1203.75 262.378 1204 262.202 1204.23 261.962L1205.03 262.886C1204.74 263.222 1204.38 263.482 1203.94 263.666C1203.51 263.842 1203.01 263.93 1202.45 263.93ZM1208.88 263.93C1208.35 263.93 1207.83 263.862 1207.33 263.726C1206.85 263.582 1206.46 263.41 1206.17 263.21L1206.75 262.07C1207.03 262.254 1207.38 262.406 1207.78 262.526C1208.18 262.646 1208.58 262.706 1208.98 262.706C1209.45 262.706 1209.79 262.642 1210 262.514C1210.21 262.386 1210.32 262.214 1210.32 261.998C1210.32 261.822 1210.25 261.69 1210.11 261.602C1209.96 261.506 1209.77 261.434 1209.54 261.386C1209.31 261.338 1209.05 261.294 1208.76 261.254C1208.48 261.214 1208.2 261.162 1207.91 261.098C1207.63 261.026 1207.37 260.926 1207.14 260.798C1206.91 260.662 1206.72 260.482 1206.58 260.258C1206.43 260.034 1206.36 259.738 1206.36 259.37C1206.36 258.962 1206.48 258.61 1206.71 258.314C1206.94 258.01 1207.27 257.778 1207.68 257.618C1208.11 257.45 1208.61 257.366 1209.18 257.366C1209.61 257.366 1210.05 257.414 1210.49 257.51C1210.93 257.606 1211.29 257.742 1211.58 257.918L1211.01 259.058C1210.7 258.874 1210.39 258.75 1210.08 258.686C1209.78 258.614 1209.47 258.578 1209.17 258.578C1208.71 258.578 1208.37 258.646 1208.15 258.782C1207.93 258.918 1207.83 259.09 1207.83 259.298C1207.83 259.49 1207.9 259.634 1208.04 259.73C1208.19 259.826 1208.37 259.902 1208.61 259.958C1208.84 260.014 1209.09 260.062 1209.37 260.102C1209.66 260.134 1209.95 260.186 1210.23 260.258C1210.51 260.33 1210.76 260.43 1210.99 260.558C1211.23 260.678 1211.43 260.85 1211.57 261.074C1211.71 261.298 1211.79 261.59 1211.79 261.95C1211.79 262.35 1211.67 262.698 1211.43 262.994C1211.19 263.29 1210.86 263.522 1210.43 263.69C1210 263.85 1209.48 263.93 1208.88 263.93ZM1216.09 263.93C1215.38 263.93 1214.75 263.79 1214.22 263.51C1213.69 263.222 1213.28 262.83 1212.98 262.334C1212.69 261.838 1212.55 261.274 1212.55 260.642C1212.55 260.002 1212.69 259.438 1212.97 258.95C1213.26 258.454 1213.65 258.066 1214.15 257.786C1214.65 257.506 1215.22 257.366 1215.86 257.366C1216.49 257.366 1217.04 257.502 1217.53 257.774C1218.02 258.046 1218.4 258.43 1218.68 258.926C1218.96 259.422 1219.1 260.006 1219.1 260.678C1219.1 260.742 1219.1 260.814 1219.09 260.894C1219.09 260.974 1219.09 261.05 1219.08 261.122H1213.74V260.126H1218.29L1217.7 260.438C1217.71 260.07 1217.63 259.746 1217.47 259.466C1217.31 259.186 1217.09 258.966 1216.81 258.806C1216.54 258.646 1216.22 258.566 1215.86 258.566C1215.49 258.566 1215.17 258.646 1214.89 258.806C1214.62 258.966 1214.4 259.19 1214.24 259.478C1214.09 259.758 1214.01 260.09 1214.01 260.474V260.714C1214.01 261.098 1214.1 261.438 1214.28 261.734C1214.45 262.03 1214.7 262.258 1215.02 262.418C1215.34 262.578 1215.71 262.658 1216.13 262.658C1216.49 262.658 1216.81 262.602 1217.1 262.49C1217.39 262.378 1217.64 262.202 1217.87 261.962L1218.67 262.886C1218.38 263.222 1218.02 263.482 1217.58 263.666C1217.15 263.842 1216.65 263.93 1216.09 263.93ZM1224.18 257.366C1224.69 257.366 1225.15 257.466 1225.55 257.666C1225.95 257.866 1226.27 258.174 1226.51 258.59C1226.74 258.998 1226.85 259.526 1226.85 260.174V263.846H1225.35V260.366C1225.35 259.798 1225.22 259.374 1224.95 259.094C1224.68 258.814 1224.31 258.674 1223.83 258.674C1223.48 258.674 1223.17 258.746 1222.89 258.89C1222.62 259.034 1222.41 259.25 1222.26 259.538C1222.11 259.818 1222.04 260.174 1222.04 260.606V263.846H1220.54V257.438H1221.97V259.166L1221.72 258.638C1221.94 258.23 1222.27 257.918 1222.69 257.702C1223.12 257.478 1223.62 257.366 1224.18 257.366ZM1231.17 263.93C1230.47 263.93 1229.92 263.75 1229.54 263.39C1229.15 263.022 1228.96 262.482 1228.96 261.77V256.022H1230.46V261.734C1230.46 262.038 1230.54 262.274 1230.69 262.442C1230.85 262.61 1231.07 262.694 1231.35 262.694C1231.69 262.694 1231.97 262.606 1232.19 262.43L1232.61 263.498C1232.43 263.642 1232.22 263.75 1231.96 263.822C1231.71 263.894 1231.44 263.93 1231.17 263.93ZM1227.91 258.686V257.486H1232.18V258.686H1227.91Z" fill="#929292"/>
<path d="M1412.48 243.766V228.726H1413.79V243.766H1412.48ZM1412.98 242.006C1412.1 242.006 1411.26 241.883 1410.46 241.638C1409.66 241.382 1409.03 241.056 1408.56 240.662L1409.28 239.046C1409.73 239.398 1410.28 239.691 1410.94 239.926C1411.61 240.16 1412.28 240.278 1412.98 240.278C1413.56 240.278 1414.04 240.214 1414.4 240.086C1414.76 239.958 1415.03 239.787 1415.2 239.574C1415.37 239.35 1415.46 239.099 1415.46 238.822C1415.46 238.48 1415.33 238.208 1415.09 238.006C1414.84 237.792 1414.52 237.627 1414.13 237.51C1413.74 237.382 1413.31 237.264 1412.83 237.158C1412.36 237.051 1411.89 236.928 1411.41 236.79C1410.94 236.64 1410.51 236.454 1410.11 236.23C1409.73 235.995 1409.41 235.686 1409.17 235.302C1408.92 234.918 1408.8 234.427 1408.8 233.83C1408.8 233.222 1408.96 232.667 1409.28 232.166C1409.61 231.654 1410.11 231.248 1410.77 230.95C1411.44 230.64 1412.29 230.486 1413.31 230.486C1413.98 230.486 1414.65 230.571 1415.31 230.742C1415.97 230.912 1416.55 231.158 1417.04 231.478L1416.38 233.094C1415.88 232.795 1415.37 232.576 1414.83 232.438C1414.3 232.288 1413.79 232.214 1413.3 232.214C1412.72 232.214 1412.25 232.283 1411.89 232.422C1411.54 232.56 1411.27 232.742 1411.1 232.966C1410.94 233.19 1410.86 233.446 1410.86 233.734C1410.86 234.075 1410.98 234.352 1411.22 234.566C1411.46 234.768 1411.78 234.928 1412.16 235.046C1412.55 235.163 1412.99 235.28 1413.47 235.398C1413.95 235.504 1414.43 235.627 1414.9 235.766C1415.38 235.904 1415.81 236.086 1416.19 236.31C1416.59 236.534 1416.9 236.838 1417.14 237.222C1417.38 237.606 1417.5 238.091 1417.5 238.678C1417.5 239.275 1417.34 239.83 1417.01 240.342C1416.69 240.843 1416.19 241.248 1415.52 241.558C1414.85 241.856 1414 242.006 1412.98 242.006ZM1418.62 241.846V240.454L1423.07 236.23C1423.44 235.878 1423.72 235.568 1423.9 235.302C1424.08 235.035 1424.2 234.79 1424.25 234.566C1424.32 234.331 1424.35 234.112 1424.35 233.91C1424.35 233.398 1424.17 233.003 1423.82 232.726C1423.47 232.438 1422.95 232.294 1422.27 232.294C1421.73 232.294 1421.23 232.39 1420.78 232.582C1420.35 232.774 1419.97 233.067 1419.65 233.462L1418.19 232.342C1418.63 231.755 1419.21 231.302 1419.95 230.982C1420.7 230.651 1421.53 230.486 1422.45 230.486C1423.26 230.486 1423.96 230.619 1424.56 230.886C1425.17 231.142 1425.63 231.51 1425.95 231.99C1426.28 232.47 1426.45 233.04 1426.45 233.702C1426.45 234.064 1426.4 234.427 1426.3 234.79C1426.21 235.142 1426.03 235.515 1425.76 235.91C1425.49 236.304 1425.1 236.747 1424.59 237.238L1420.77 240.87L1420.33 240.086H1426.88V241.846H1418.62ZM1431.79 242.006C1431 242.006 1430.23 241.894 1429.47 241.67C1428.72 241.435 1428.1 241.115 1427.58 240.71L1428.46 239.094C1428.87 239.424 1429.36 239.691 1429.94 239.894C1430.52 240.096 1431.13 240.198 1431.76 240.198C1432.5 240.198 1433.07 240.043 1433.49 239.734C1433.91 239.424 1434.13 239.008 1434.13 238.486C1434.13 238.134 1434.04 237.824 1433.86 237.558C1433.68 237.291 1433.38 237.088 1432.93 236.95C1432.49 236.811 1431.89 236.742 1431.12 236.742H1428.42L1428.99 230.646H1435.57V232.39H1429.76L1430.85 231.398L1430.42 235.958L1429.33 234.982H1431.58C1432.69 234.982 1433.58 235.131 1434.26 235.43C1434.94 235.718 1435.43 236.123 1435.74 236.646C1436.06 237.158 1436.22 237.744 1436.22 238.406C1436.22 239.056 1436.06 239.654 1435.74 240.198C1435.42 240.742 1434.93 241.179 1434.27 241.51C1433.62 241.84 1432.79 242.006 1431.79 242.006ZM1437.5 244.262L1438.43 240.726L1438.7 241.91C1438.33 241.91 1438.01 241.798 1437.76 241.574C1437.51 241.339 1437.39 241.024 1437.39 240.63C1437.39 240.224 1437.51 239.904 1437.76 239.67C1438.01 239.424 1438.32 239.302 1438.69 239.302C1439.06 239.302 1439.37 239.424 1439.61 239.67C1439.86 239.915 1439.98 240.235 1439.98 240.63C1439.98 240.736 1439.97 240.854 1439.95 240.982C1439.93 241.099 1439.89 241.238 1439.84 241.398C1439.8 241.558 1439.72 241.76 1439.61 242.006L1438.8 244.262H1437.5ZM1445.04 242.006C1444.25 242.006 1443.48 241.894 1442.72 241.67C1441.97 241.435 1441.35 241.115 1440.83 240.71L1441.71 239.094C1442.12 239.424 1442.61 239.691 1443.19 239.894C1443.77 240.096 1444.38 240.198 1445.01 240.198C1445.75 240.198 1446.32 240.043 1446.74 239.734C1447.16 239.424 1447.38 239.008 1447.38 238.486C1447.38 238.134 1447.29 237.824 1447.11 237.558C1446.93 237.291 1446.63 237.088 1446.18 236.95C1445.74 236.811 1445.14 236.742 1444.37 236.742H1441.67L1442.24 230.646H1448.82V232.39H1443.01L1444.1 231.398L1443.67 235.958L1442.58 234.982H1444.83C1445.94 234.982 1446.83 235.131 1447.51 235.43C1448.19 235.718 1448.68 236.123 1448.99 236.646C1449.31 237.158 1449.47 237.744 1449.47 238.406C1449.47 239.056 1449.31 239.654 1448.99 240.198C1448.67 240.742 1448.18 241.179 1447.52 241.51C1446.87 241.84 1446.04 242.006 1445.04 242.006ZM1455.52 242.006C1454.51 242.006 1453.64 241.792 1452.91 241.366C1452.19 240.928 1451.63 240.299 1451.25 239.478C1450.86 238.656 1450.67 237.643 1450.67 236.438C1450.67 235.158 1450.9 234.075 1451.36 233.19C1451.83 232.304 1452.48 231.632 1453.3 231.174C1454.13 230.715 1455.08 230.486 1456.16 230.486C1456.73 230.486 1457.26 230.544 1457.78 230.662C1458.3 230.779 1458.74 230.96 1459.1 231.206L1458.34 232.774C1458.03 232.571 1457.69 232.432 1457.33 232.358C1456.98 232.272 1456.6 232.23 1456.21 232.23C1455.15 232.23 1454.32 232.555 1453.7 233.206C1453.08 233.856 1452.77 234.816 1452.77 236.086C1452.77 236.288 1452.77 236.528 1452.78 236.806C1452.8 237.072 1452.83 237.344 1452.9 237.622L1452.26 236.918C1452.45 236.48 1452.71 236.118 1453.04 235.83C1453.38 235.531 1453.78 235.307 1454.24 235.158C1454.71 235.008 1455.22 234.934 1455.76 234.934C1456.5 234.934 1457.15 235.078 1457.73 235.366C1458.3 235.643 1458.76 236.043 1459.1 236.566C1459.45 237.078 1459.62 237.68 1459.62 238.374C1459.62 239.11 1459.44 239.75 1459.07 240.294C1458.71 240.838 1458.22 241.259 1457.6 241.558C1456.98 241.856 1456.29 242.006 1455.52 242.006ZM1455.41 240.374C1455.84 240.374 1456.21 240.299 1456.54 240.15C1456.88 239.99 1457.13 239.766 1457.31 239.478C1457.5 239.19 1457.6 238.854 1457.6 238.47C1457.6 237.883 1457.4 237.419 1456.99 237.078C1456.59 236.736 1456.04 236.566 1455.36 236.566C1454.91 236.566 1454.52 236.651 1454.18 236.822C1453.85 236.982 1453.58 237.206 1453.38 237.494C1453.18 237.782 1453.09 238.112 1453.09 238.486C1453.09 238.827 1453.18 239.142 1453.36 239.43C1453.54 239.718 1453.8 239.947 1454.14 240.118C1454.5 240.288 1454.92 240.374 1455.41 240.374ZM1464.48 230.486C1465.5 230.486 1466.37 230.704 1467.09 231.142C1467.81 231.568 1468.37 232.192 1468.75 233.014C1469.14 233.835 1469.33 234.848 1469.33 236.054C1469.33 237.334 1469.09 238.416 1468.62 239.302C1468.17 240.187 1467.53 240.859 1466.7 241.318C1465.88 241.776 1464.93 242.006 1463.84 242.006C1463.27 242.006 1462.74 241.947 1462.22 241.83C1461.71 241.712 1461.27 241.531 1460.9 241.286L1461.66 239.718C1461.97 239.92 1462.31 240.064 1462.67 240.15C1463.03 240.224 1463.41 240.262 1463.79 240.262C1464.85 240.262 1465.69 239.936 1466.3 239.286C1466.92 238.635 1467.23 237.675 1467.23 236.406C1467.23 236.203 1467.23 235.968 1467.22 235.702C1467.21 235.424 1467.17 235.147 1467.1 234.87L1467.74 235.574C1467.56 236.011 1467.3 236.379 1466.96 236.678C1466.62 236.966 1466.22 237.184 1465.76 237.334C1465.3 237.483 1464.79 237.558 1464.24 237.558C1463.51 237.558 1462.86 237.419 1462.27 237.142C1461.7 236.854 1461.24 236.454 1460.9 235.942C1460.55 235.419 1460.38 234.811 1460.38 234.118C1460.38 233.371 1460.57 232.731 1460.93 232.198C1461.29 231.654 1461.78 231.232 1462.4 230.934C1463.03 230.635 1463.72 230.486 1464.48 230.486ZM1464.59 232.118C1464.17 232.118 1463.79 232.198 1463.46 232.358C1463.13 232.507 1462.86 232.726 1462.67 233.014C1462.49 233.291 1462.4 233.627 1462.4 234.022C1462.4 234.608 1462.6 235.072 1463.01 235.414C1463.41 235.755 1463.96 235.926 1464.64 235.926C1465.09 235.926 1465.48 235.846 1465.82 235.686C1466.17 235.515 1466.43 235.286 1466.62 234.998C1466.82 234.699 1466.91 234.368 1466.91 234.006C1466.91 233.654 1466.82 233.339 1466.64 233.062C1466.46 232.774 1466.2 232.544 1465.86 232.374C1465.51 232.203 1465.09 232.118 1464.59 232.118ZM1471.8 241.958C1471.43 241.958 1471.12 241.835 1470.87 241.59C1470.61 241.334 1470.48 241.014 1470.48 240.63C1470.48 240.224 1470.61 239.904 1470.87 239.67C1471.12 239.424 1471.43 239.302 1471.8 239.302C1472.16 239.302 1472.47 239.424 1472.72 239.67C1472.98 239.904 1473.11 240.224 1473.11 240.63C1473.11 241.014 1472.98 241.334 1472.72 241.59C1472.47 241.835 1472.16 241.958 1471.8 241.958ZM1478.17 242.006C1477.38 242.006 1476.6 241.894 1475.85 241.67C1475.1 241.435 1474.47 241.115 1473.96 240.71L1474.84 239.094C1475.24 239.424 1475.73 239.691 1476.31 239.894C1476.9 240.096 1477.5 240.198 1478.13 240.198C1478.87 240.198 1479.45 240.043 1479.86 239.734C1480.29 239.424 1480.5 239.008 1480.5 238.486C1480.5 238.134 1480.41 237.824 1480.23 237.558C1480.06 237.291 1479.75 237.088 1479.3 236.95C1478.86 236.811 1478.26 236.742 1477.49 236.742H1474.79L1475.37 230.646H1481.94V232.39H1476.13L1477.22 231.398L1476.79 235.958L1475.7 234.982H1477.96C1479.07 234.982 1479.96 235.131 1480.63 235.43C1481.31 235.718 1481.81 236.123 1482.12 236.646C1482.44 237.158 1482.6 237.744 1482.6 238.406C1482.6 239.056 1482.44 239.654 1482.12 240.198C1481.8 240.742 1481.31 241.179 1480.65 241.51C1480 241.84 1479.17 242.006 1478.17 242.006ZM1487.43 242.006C1486.64 242.006 1485.87 241.894 1485.11 241.67C1484.36 241.435 1483.74 241.115 1483.22 240.71L1484.1 239.094C1484.51 239.424 1485 239.691 1485.58 239.894C1486.16 240.096 1486.77 240.198 1487.4 240.198C1488.14 240.198 1488.71 240.043 1489.13 239.734C1489.55 239.424 1489.77 239.008 1489.77 238.486C1489.77 238.134 1489.68 237.824 1489.5 237.558C1489.32 237.291 1489.02 237.088 1488.57 236.95C1488.13 236.811 1487.53 236.742 1486.76 236.742H1484.06L1484.63 230.646H1491.21V232.39H1485.4L1486.49 231.398L1486.06 235.958L1484.97 234.982H1487.22C1488.33 234.982 1489.22 235.131 1489.9 235.43C1490.58 235.718 1491.07 236.123 1491.38 236.646C1491.7 237.158 1491.86 237.744 1491.86 238.406C1491.86 239.056 1491.7 239.654 1491.38 240.198C1491.06 240.742 1490.57 241.179 1489.91 241.51C1489.26 241.84 1488.43 242.006 1487.43 242.006Z" fill="#FDFDFD"/>
<path d="M1459.9 262.346V256.946H1461.19V262.346H1459.9ZM1457.78 260.246V259.046H1463.31V260.246H1457.78ZM1465.72 263.846V256.046L1466.4 256.754H1463.94V255.446H1467.28V263.846H1465.72ZM1471.58 263.966C1470.99 263.966 1470.41 263.882 1469.84 263.714C1469.28 263.538 1468.81 263.298 1468.43 262.994L1469.1 261.782C1469.4 262.03 1469.77 262.23 1470.2 262.382C1470.63 262.534 1471.09 262.61 1471.56 262.61C1472.12 262.61 1472.55 262.498 1472.87 262.274C1473.18 262.042 1473.33 261.73 1473.33 261.338C1473.33 260.954 1473.19 260.65 1472.9 260.426C1472.61 260.202 1472.15 260.09 1471.51 260.09H1470.74V259.022L1473.14 256.166L1473.35 256.754H1468.83V255.446H1474.56V256.49L1472.16 259.346L1471.34 258.866H1471.81C1472.84 258.866 1473.61 259.098 1474.13 259.562C1474.65 260.018 1474.91 260.606 1474.91 261.326C1474.91 261.798 1474.79 262.234 1474.55 262.634C1474.31 263.034 1473.94 263.358 1473.44 263.606C1472.95 263.846 1472.33 263.966 1471.58 263.966ZM1478.59 263.966C1478 263.966 1477.42 263.882 1476.85 263.714C1476.29 263.538 1475.82 263.298 1475.44 262.994L1476.1 261.782C1476.4 262.03 1476.77 262.23 1477.2 262.382C1477.64 262.534 1478.1 262.61 1478.57 262.61C1479.12 262.61 1479.55 262.494 1479.87 262.262C1480.19 262.03 1480.35 261.718 1480.35 261.326C1480.35 261.062 1480.28 260.83 1480.14 260.63C1480.01 260.43 1479.78 260.278 1479.45 260.174C1479.12 260.07 1478.67 260.018 1478.09 260.018H1476.06L1476.49 255.446H1481.43V256.754H1477.07L1477.89 256.01L1477.56 259.43L1476.75 258.698H1478.44C1479.27 258.698 1479.94 258.81 1480.44 259.034C1480.95 259.25 1481.33 259.554 1481.56 259.946C1481.8 260.33 1481.92 260.77 1481.92 261.266C1481.92 261.754 1481.8 262.202 1481.56 262.61C1481.32 263.018 1480.95 263.346 1480.45 263.594C1479.97 263.842 1479.35 263.966 1478.59 263.966ZM1483.88 263.846L1489.61 255.446H1490.79L1485.05 263.846H1483.88ZM1484.57 259.97C1484.18 259.97 1483.83 259.874 1483.53 259.682C1483.22 259.49 1482.99 259.222 1482.82 258.878C1482.65 258.534 1482.57 258.13 1482.57 257.666C1482.57 257.202 1482.65 256.798 1482.82 256.454C1482.99 256.11 1483.22 255.842 1483.53 255.65C1483.83 255.458 1484.18 255.362 1484.57 255.362C1484.98 255.362 1485.33 255.458 1485.63 255.65C1485.93 255.842 1486.17 256.11 1486.34 256.454C1486.5 256.798 1486.59 257.202 1486.59 257.666C1486.59 258.13 1486.5 258.534 1486.34 258.878C1486.17 259.222 1485.93 259.49 1485.63 259.682C1485.33 259.874 1484.98 259.97 1484.57 259.97ZM1484.58 259.13C1484.9 259.13 1485.15 259.006 1485.33 258.758C1485.51 258.502 1485.6 258.138 1485.6 257.666C1485.6 257.194 1485.51 256.834 1485.33 256.586C1485.15 256.33 1484.9 256.202 1484.58 256.202C1484.26 256.202 1484.01 256.33 1483.82 256.586C1483.63 256.842 1483.54 257.202 1483.54 257.666C1483.54 258.13 1483.63 258.49 1483.82 258.746C1484.01 259.002 1484.26 259.13 1484.58 259.13ZM1490.08 263.93C1489.69 263.93 1489.34 263.834 1489.04 263.642C1488.73 263.45 1488.5 263.182 1488.33 262.838C1488.16 262.494 1488.08 262.09 1488.08 261.626C1488.08 261.162 1488.16 260.758 1488.33 260.414C1488.5 260.07 1488.73 259.802 1489.04 259.61C1489.34 259.418 1489.69 259.322 1490.08 259.322C1490.49 259.322 1490.84 259.418 1491.14 259.61C1491.44 259.802 1491.68 260.07 1491.84 260.414C1492.01 260.758 1492.1 261.162 1492.1 261.626C1492.1 262.09 1492.01 262.494 1491.84 262.838C1491.68 263.182 1491.44 263.45 1491.14 263.642C1490.84 263.834 1490.49 263.93 1490.08 263.93ZM1490.08 263.09C1490.4 263.09 1490.65 262.962 1490.84 262.706C1491.02 262.45 1491.11 262.09 1491.11 261.626C1491.11 261.162 1491.02 260.802 1490.84 260.546C1490.65 260.29 1490.4 260.162 1490.08 260.162C1489.77 260.162 1489.52 260.29 1489.32 260.546C1489.14 260.794 1489.05 261.154 1489.05 261.626C1489.05 262.098 1489.14 262.462 1489.32 262.718C1489.52 262.966 1489.77 263.09 1490.08 263.09Z" fill="#16C59B"/>
<defs>
<filter id="filter0_d_0_1" x="684" y="448.154" width="435" height="151.846" filterUnits="userSpaceOnUse" color-interpolation-filters="sRGB">
<feFlood flood-opacity="0" result="BackgroundImageFix"/>
<feColorMatrix in="SourceAlpha" type="matrix" values="0 0 0 0 0 0 0 0 0 0 0 0 0 0 0 0 0 0 127 0" result="hardAlpha"/>
<feOffset dy="10"/>
<feGaussianBlur stdDeviation="15"/>
<feComposite in2="hardAlpha" operator="out"/>
<feColorMatrix type="matrix" values="0 0 0 0 0.207843 0 0 0 0 0.423529 0 0 0 0 0.984314 0 0 0 0.1 0"/>
<feBlend mode="normal" in2="BackgroundImageFix" result="effect1_dropShadow_0_1"/>
<feBlend mode="normal" in="SourceGraphic" in2="effect1_dropShadow_0_1" result="shape"/>
</filter>
<filter id="filter1_d_0_1" x="1135" y="177" width="397" height="147.847" filterUnits="userSpaceOnUse" color-interpolation-filters="sRGB">
<feFlood flood-opacity="0" result="BackgroundImageFix"/>
<feColorMatrix in="SourceAlpha" type="matrix" values="0 0 0 0 0 0 0 0 0 0 0 0 0 0 0 0 0 0 127 0" result="hardAlpha"/>
<feOffset dy="10"/>
<feGaussianBlur stdDeviation="15"/>
<feComposite in2="hardAlpha" operator="out"/>
<feColorMatrix type="matrix" values="0 0 0 0 0.207843 0 0 0 0 0.423529 0 0 0 0 0.984314 0 0 0 0.1 0"/>
<feBlend mode="normal" in2="BackgroundImageFix" result="effect1_dropShadow_0_1"/>
<feBlend mode="normal" in="SourceGraphic" in2="effect1_dropShadow_0_1" result="shape"/>
</filter>
<linearGradient id="paint0_linear_0_1" x1="792.5" y1="2.5" x2="792.5" y2="610.5" gradientUnits="userSpaceOnUse">
<stop stop-color="#356CFB" stop-opacity="0.18"/>
<stop offset="1" stop-color="#356CFB" stop-opacity="0"/>
</linearGradient>
<linearGradient id="paint1_linear_0_1" x1="908.5" y1="323" x2="922.5" y2="471.5" gradientUnits="userSpaceOnUse">
<stop stop-color="#356CFB" stop-opacity="0.6"/>
<stop offset="1" stop-color="#356CFB" stop-opacity="0"/>
</linearGradient>
<linearGradient id="paint2_linear_0_1" x1="1334.5" y1="47" x2="1348.5" y2="195.5" gradientUnits="userSpaceOnUse">
<stop stop-color="#356CFB" stop-opacity="0.6"/>
<stop offset="1" stop-color="#356CFB" stop-opacity="0"/>
</linearGradient>
</defs>
</svg>


